
<svg xmlns="http://www.w3.org/2000/svg" viewBox="0 0 512 512" width="512" height="512">
  
  <defs>
    <radialGradient id="bg" cx="30%" cy="22%" r="95%">
      <stop offset="0" stop-color="#3b1f52"/><stop offset="0.55" stop-color="#22112f"/><stop offset="1" stop-color="#140a1c"/>
    </radialGradient>
    <linearGradient id="gold" x1="0" y1="0" x2="1" y2="1">
      <stop offset="0" stop-color="#f6e7c8"/><stop offset="0.55" stop-color="#e2c493"/><stop offset="1" stop-color="#c9959a"/>
    </linearGradient>
    <linearGradient id="rose" x1="1" y1="0" x2="0" y2="1">
      <stop offset="0" stop-color="#f0c3c4"/><stop offset="1" stop-color="#b9788a"/>
    </linearGradient>
    <mask id="moon">
      <rect width="512" height="512" fill="black"/>
      <circle cx="236" cy="256" r="164" fill="white"/>
      <circle cx="298" cy="248" r="138" fill="black"/>
    </mask>
    <clipPath id="top"><circle cx="321" cy="239.5" r="14"/></clipPath>
    <filter id="glow" x="-30%" y="-30%" width="160%" height="160%"><feGaussianBlur stdDeviation="7"/></filter>
  </defs>
  <rect width="512" height="512" rx="112" fill="url(#bg)"/>
  <g transform="translate(0 0) scale(1)">
  <g>
    <circle cx="236" cy="256" r="164" fill="url(#gold)" mask="url(#moon)" opacity="0.28" filter="url(#glow)"/>
    <circle cx="236" cy="256" r="164" fill="url(#gold)" mask="url(#moon)"/>
    <!-- two intertwined forms, cradled by the crescent -->
    <g transform="translate(-31 -13)">
      <g fill="none" stroke-linecap="round" stroke-width="13">
        <ellipse cx="300" cy="284" rx="58" ry="34" transform="rotate(-38 300 284)" stroke="url(#gold)"/>
        <ellipse cx="342" cy="284" rx="58" ry="34" transform="rotate(38 342 284)" stroke="url(#rose)"/>
        <!-- weave: gold passes OVER rose at the top crossing, UNDER it at the bottom one -->
        <g clip-path="url(#top)">
          <ellipse cx="300" cy="284" rx="58" ry="34" transform="rotate(-38 300 284)" stroke="url(#gold)"/>
        </g>
      </g>
      <!-- tiny heart where the forms meet -->
      <path d="M321 297 c-9 -8 -17 -14 -17 -22 a9 9 0 0 1 17 -4 a9 9 0 0 1 17 4 c0 8 -8 14 -17 22z" fill="#f4d7d4"/>
    </g>
    <!-- star -->
    <path d="M396 132 l5 15 15 5 -15 5 -5 15 -5 -15 -15 -5 15 -5z" fill="#f6e7c8"/>
    <circle cx="352" cy="118" r="3.4" fill="#f6e7c8" opacity="0.7"/>
    <circle cx="420" cy="186" r="2.6" fill="#f6e7c8" opacity="0.55"/>
  </g></g>
</svg>